# 3ds Max Wavefront OBJ Exporter v0.97b - (c)2007 guruware
# File Created: 24.08.2015 00:34:01

mtllib cruz.mtl

#
# object Box001
#

v  0.2398 -5.2620 0.2156
v  -0.2398 -5.2620 0.2156
v  -0.2398 -5.2620 -0.2156
v  0.2398 -5.2620 -0.2156
v  0.2398 3.4813 0.2156
v  0.2398 3.4813 -0.2156
v  -0.2398 3.4813 -0.2156
v  -0.2398 3.4813 0.2156
v  0.8740 0.3353 -0.7859
v  0.8740 0.3353 0.7859
v  -0.8740 0.3353 -0.7859
v  -0.8740 0.3353 0.7859
v  0.8740 1.6072 0.7859
v  0.8740 1.6072 -0.7859
v  -0.8740 1.6072 -0.7859
v  -0.8740 1.6072 0.7859
v  4.2370 1.2191 -0.2030
v  4.2370 1.2191 0.2030
v  4.2370 0.7233 0.2030
v  4.2370 0.7233 -0.2030
v  -4.2370 1.2191 0.2030
v  -4.2370 1.2191 -0.2030
v  -4.2370 0.7233 -0.2030
v  -4.2370 0.7233 0.2030
# 24 vertices

vn 0.0000 -1.0000 -0.0000
vn 0.0000 1.0000 -0.0000
vn 0.9936 -0.1126 0.0000
vn 0.0000 -0.1014 -0.9948
vn 0.0000 -0.0489 -0.9988
vn -0.9936 -0.1126 -0.0000
vn -0.0000 -0.1014 0.9948
vn -0.0000 -0.0489 0.9988
vn 0.9472 0.3206 0.0000
vn 0.0000 0.2911 -0.9567
vn 0.0000 0.1309 -0.9914
vn -0.9472 0.3206 -0.0000
vn -0.0000 0.2911 0.9567
vn -0.0000 0.1309 0.9914
vn 1.0000 0.0000 0.0000
vn -1.0000 0.0000 -0.0000
vn 0.1708 0.0000 0.9853
vn 0.1146 -0.9934 0.0000
vn 0.1708 0.0000 -0.9853
vn 0.1146 0.9934 0.0000
vn -0.1146 0.9934 -0.0000
vn -0.1708 0.0000 -0.9853
vn -0.1146 -0.9934 -0.0000
vn -0.1708 0.0000 0.9853
# 24 vertex normals

vt 1.0000 0.0000 0.0000
vt 1.0000 1.0000 0.0000
vt 0.0000 1.0000 0.0000
vt 0.0000 0.0000 0.0000
vt 1.0000 0.6402 0.0000
vt 0.0000 0.6402 0.0000
vt 0.0000 0.7857 0.0000
vt 1.0000 0.7857 0.0000
# 8 texture coords

g Box001
usemtl wire_228214153
s 2
f 1/1/1 2/2/1 3/3/1 4/4/1 
s 4
f 5/4/2 6/1/2 7/2/2 8/3/2 
s 8
f 4/1/3 9/5/3 10/6/3 1/4/3 
s 16
f 3/1/4 11/5/5 9/6/5 4/4/4 
s 32
f 2/1/6 12/5/6 11/6/6 3/4/6 
s 64
f 1/1/7 10/5/8 12/6/8 2/4/7 
s 8
f 6/2/9 5/3/9 13/7/9 14/8/9 
s 16
f 7/2/10 6/3/10 14/7/11 15/8/11 
s 32
f 8/2/12 7/3/12 15/7/12 16/8/12 
s 64
f 5/2/13 8/3/13 16/7/14 13/8/14 
s 8
f 17/8/15 18/7/15 19/6/15 20/5/15 
s 16
f 15/8/11 14/7/11 9/6/5 11/5/5 
s 32
f 21/8/16 22/7/16 23/6/16 24/5/16 
s 64
f 13/8/14 16/7/14 12/6/8 10/5/8 
s off
f 13/7/17 10/6/17 19/6/17 18/7/17 
f 10/6/18 9/5/18 20/5/18 19/6/18 
f 9/5/19 14/8/19 17/8/19 20/5/19 
f 14/8/20 13/7/20 18/7/20 17/8/20 
f 16/8/21 15/7/21 22/7/21 21/8/21 
f 15/7/22 11/6/22 23/6/22 22/7/22 
f 11/6/23 12/5/23 24/5/23 23/6/23 
f 12/5/24 16/8/24 21/8/24 24/5/24 
# 22 polygons

