# 3ds Max Wavefront OBJ Exporter v0.97b - (c)2007 guruware
# File Created: 25.12.2014 09:06:08

mtllib torus3DMax.mtl

#
# object Torus001
#

v  -0.2401 0.9919 -2.6795
v  0.9946 1.5186 -1.9808
v  1.1855 1.1963 -2.3205
v  -0.3219 1.3298 -2.3123
v  0.7660 1.4151 -1.5417
v  -0.3054 1.2615 -1.8115
v  0.6718 0.9637 -1.3339
v  -0.2029 0.8383 -1.5542
v  0.7830 0.5044 -1.5139
v  -0.0917 0.3790 -1.7342
v  1.0158 0.3830 -1.9461
v  -0.0555 0.2294 -2.2159
v  1.1949 0.6909 -2.3051
v  -0.1215 0.5021 -2.6366
v  2.0177 1.4113 -1.0751
v  2.2934 1.0801 -1.3398
v  1.5986 1.3278 -0.8046
v  1.3517 0.8925 -0.7321
v  1.4629 0.4331 -0.9121
v  1.8484 0.2957 -1.2091
v  2.2181 0.5836 -1.3994
v  2.4734 1.0368 0.1622
v  2.7868 0.6746 -0.0000
v  1.9694 1.0230 0.2022
v  1.6544 0.6436 0.0900
v  1.7656 0.1843 -0.0900
v  2.2192 -0.0091 -0.2022
v  2.6737 0.2091 -0.1622
v  2.2394 0.4954 1.3994
v  2.5335 0.0883 1.3398
v  1.7790 0.5824 1.2091
v  1.4990 0.2838 0.9121
v  1.6102 -0.1755 0.7321
v  2.0289 -0.4497 0.8046
v  2.4398 -0.3323 1.0751
v  1.3786 -0.0679 2.3051
v  1.6013 -0.5217 2.3205
v  1.0785 0.1240 1.9461
v  0.9270 -0.0905 1.5139
v  1.0382 -0.5498 1.3339
v  1.3283 -0.9081 1.5417
v  1.5790 -0.8956 1.9808
v  0.1215 -0.5021 2.6366
v  0.2401 -0.9919 2.6795
v  0.0555 -0.2294 2.2159
v  0.0917 -0.3790 1.7342
v  0.2029 -0.8383 1.5542
v  0.3054 -1.2615 1.8115
v  0.3219 -1.3298 2.3123
v  -1.1949 -0.6909 2.3051
v  -1.1855 -1.1963 2.3205
v  -1.0158 -0.3830 1.9461
v  -0.7830 -0.5044 1.5139
v  -0.6718 -0.9637 1.3339
v  -0.7660 -1.4151 1.5417
v  -0.9946 -1.5186 1.9808
v  -2.2181 -0.5836 1.3994
v  -2.2934 -1.0801 1.3398
v  -1.8484 -0.2957 1.2091
v  -1.4629 -0.4331 0.9121
v  -1.3517 -0.8925 0.7321
v  -1.5986 -1.3278 0.8046
v  -2.0177 -1.4113 1.0751
v  -2.6737 -0.2091 0.1622
v  -2.7868 -0.6746 0.0000
v  -2.2192 0.0091 0.2022
v  -1.7656 -0.1843 0.0900
v  -1.6544 -0.6436 -0.0900
v  -1.9694 -1.0230 -0.2022
v  -2.4734 -1.0368 -0.1622
v  -2.4398 0.3323 -1.0751
v  -2.5335 -0.0883 -1.3398
v  -2.0289 0.4497 -0.8046
v  -1.6102 0.1755 -0.7321
v  -1.4990 -0.2838 -0.9121
v  -1.7790 -0.5824 -1.2091
v  -2.2394 -0.4954 -1.3994
v  -1.5790 0.8956 -1.9808
v  -1.6013 0.5217 -2.3205
v  -1.3283 0.9081 -1.5417
v  -1.0382 0.5498 -1.3339
v  -0.9270 0.0905 -1.5139
v  -1.0785 -0.1240 -1.9461
v  -1.3786 0.0679 -2.3051
# 84 vertices

vn -0.0837 0.3459 -0.9345
vn 0.1100 0.9563 -0.2710
vn 0.4134 0.4172 -0.8093
vn -0.2200 0.9089 -0.3541
vn -0.2801 0.8344 0.4747
vn -0.2046 0.8452 0.4937
vn -0.4683 0.0525 0.8820
vn -0.0280 0.1156 0.9929
vn -0.2640 -0.7914 0.5513
vn 0.1763 -0.7283 0.6622
vn 0.1545 -0.9611 -0.2289
vn 0.2300 -0.9503 -0.2098
vn 0.4389 -0.4024 -0.8034
vn 0.1089 -0.4497 -0.8865
vn 0.3665 0.9294 -0.0440
vn 0.7998 0.3767 -0.4673
vn -0.3388 0.8405 0.4228
vn -0.8104 0.0884 0.5791
vn -0.6062 -0.7555 0.2484
vn 0.0958 -0.9550 -0.2808
vn 0.6954 -0.4293 -0.5764
vn 0.4807 0.8355 0.2662
vn 0.9719 0.2353 -0.0000
vn -0.3649 0.8620 0.3518
vn -0.9628 0.2136 0.1653
vn -0.7586 -0.6303 -0.1653
vn 0.0697 -0.9335 -0.3518
vn 0.8096 -0.5232 -0.2662
vn 0.4221 0.6998 0.5764
vn 0.8836 0.0308 0.4673
vn -0.3515 0.8931 0.2808
vn -0.8846 0.3947 -0.2484
vn -0.6803 -0.4492 -0.5791
vn 0.0831 -0.9024 -0.4228
vn 0.7510 -0.6589 0.0440
vn 0.2063 0.5585 0.8034
vn 0.5585 -0.1820 0.8093
vn -0.3021 0.9254 0.2289
vn -0.5967 0.5831 -0.5513
vn -0.3924 -0.2608 -0.8820
vn 0.1325 -0.8701 -0.4747
vn 0.5352 -0.8001 0.2710
vn -0.1089 0.4497 0.8865
vn 0.0837 -0.3459 0.9345
vn -0.2300 0.9503 0.2098
vn -0.1763 0.7283 -0.6622
vn 0.0280 -0.1156 -0.9929
vn 0.2046 -0.8452 -0.4937
vn 0.2200 -0.9089 0.3541
vn -0.4389 0.4024 0.8034
vn -0.4134 -0.4172 0.8093
vn -0.1545 0.9611 0.2289
vn 0.2640 0.7914 -0.5513
vn 0.4683 -0.0525 -0.8820
vn 0.2801 -0.8344 -0.4747
vn -0.1100 -0.9563 0.2710
vn -0.6954 0.4293 0.5764
vn -0.7998 -0.3767 0.4673
vn -0.0958 0.9550 0.2808
vn 0.6062 0.7555 -0.2484
vn 0.8104 -0.0884 -0.5791
vn 0.3388 -0.8405 -0.4228
vn -0.3665 -0.9294 0.0440
vn -0.8096 0.5232 0.2662
vn -0.9719 -0.2353 0.0000
vn -0.0697 0.9335 0.3518
vn 0.7586 0.6303 0.1653
vn 0.9628 -0.2136 -0.1653
vn 0.3649 -0.8620 -0.3518
vn -0.4807 -0.8355 -0.2662
vn -0.7510 0.6589 -0.0440
vn -0.8836 -0.0308 -0.4673
vn -0.0831 0.9024 0.4228
vn 0.6803 0.4492 0.5791
vn 0.8846 -0.3947 0.2484
vn 0.3515 -0.8931 -0.2808
vn -0.4221 -0.6998 -0.5764
vn -0.5352 0.8001 -0.2710
vn -0.5585 0.1819 -0.8093
vn -0.1325 0.8701 0.4747
vn 0.3924 0.2608 0.8820
vn 0.5967 -0.5831 0.5513
vn 0.3021 -0.9254 -0.2289
vn -0.2063 -0.5585 -0.8034
# 84 vertex normals

vt 1.0000 0.5000 0.5830
vt 0.9107 0.5827 0.5699
vt 0.9107 0.5000 0.5964
vt 1.0000 0.5845 0.5580
vt 0.9107 0.6232 0.4840
vt 1.0000 0.6257 0.4747
vt 0.9107 0.5696 0.3749
vt 1.0000 0.5711 0.3669
vt 0.9107 0.4304 0.3749
vt 1.0000 0.4289 0.3669
vt 0.9107 0.3768 0.4840
vt 1.0000 0.3743 0.4747
vt 0.9107 0.4173 0.5699
vt 1.0000 0.4155 0.5580
vt 0.8276 0.5794 0.5930
vt 0.8276 0.5000 0.6223
vt 0.8276 0.6185 0.5021
vt 0.8276 0.5667 0.3904
vt 0.8276 0.4333 0.3904
vt 0.8276 0.3815 0.5021
vt 0.8276 0.4206 0.5930
vt 0.7500 0.5779 0.6043
vt 0.7500 0.5000 0.6348
vt 0.7500 0.6164 0.5109
vt 0.7500 0.5655 0.3979
vt 0.7500 0.4345 0.3979
vt 0.7500 0.3836 0.5109
vt 0.7500 0.4221 0.6043
vt 0.6724 0.5794 0.5930
vt 0.6724 0.5000 0.6223
vt 0.6724 0.6185 0.5021
vt 0.6724 0.5667 0.3904
vt 0.6724 0.4333 0.3904
vt 0.6724 0.3815 0.5021
vt 0.6724 0.4206 0.5930
vt 0.5893 0.5827 0.5699
vt 0.5893 0.5000 0.5964
vt 0.5893 0.6232 0.4840
vt 0.5893 0.5696 0.3749
vt 0.5893 0.4304 0.3749
vt 0.5893 0.3768 0.4840
vt 0.5893 0.4173 0.5699
vt 0.5000 0.5845 0.5580
vt 0.5000 0.5000 0.5830
vt 0.5000 0.6257 0.4747
vt 0.5000 0.5711 0.3669
vt 0.5000 0.4289 0.3669
vt 0.5000 0.3743 0.4747
vt 0.5000 0.4155 0.5580
vt 0.4107 0.5827 0.5699
vt 0.4107 0.5000 0.5964
vt 0.4107 0.6232 0.4840
vt 0.4107 0.5696 0.3749
vt 0.4107 0.4304 0.3749
vt 0.4107 0.3768 0.4840
vt 0.4107 0.4173 0.5699
vt 0.3276 0.5794 0.5930
vt 0.3276 0.5000 0.6223
vt 0.3276 0.6185 0.5021
vt 0.3276 0.5667 0.3904
vt 0.3276 0.4333 0.3904
vt 0.3276 0.3815 0.5021
vt 0.3276 0.4206 0.5930
vt 0.2500 0.5779 0.6043
vt 0.2500 0.5000 0.6348
vt 0.2500 0.6164 0.5109
vt 0.2500 0.5655 0.3979
vt 0.2500 0.4345 0.3979
vt 0.2500 0.3836 0.5109
vt 0.2500 0.4221 0.6043
vt 0.1724 0.5794 0.5930
vt 0.1724 0.5000 0.6223
vt 0.1724 0.6185 0.5021
vt 0.1724 0.5667 0.3904
vt 0.1724 0.4333 0.3904
vt 0.1724 0.3815 0.5021
vt 0.1724 0.4206 0.5930
vt 0.0893 0.5827 0.5699
vt 0.0893 0.5000 0.5964
vt 0.0893 0.6232 0.4840
vt 0.0893 0.5696 0.3749
vt 0.0893 0.4304 0.3749
vt 0.0893 0.3768 0.4840
vt 0.0893 0.4173 0.5699
vt -0.0000 0.5845 0.5580
vt -0.0000 0.5000 0.5830
vt -0.0000 0.6257 0.4747
vt -0.0000 0.5711 0.3669
vt -0.0000 0.4289 0.3669
vt -0.0000 0.3743 0.4747
vt -0.0000 0.4155 0.5580
# 91 texture coords

g Torus001
usemtl 01___Default
s 1
f 1/1/1 2/2/2 3/3/3 
f 1/1/1 4/4/4 2/2/2 
f 4/4/4 5/5/5 2/2/2 
f 4/4/4 6/6/6 5/5/5 
f 6/6/6 7/7/7 5/5/5 
f 6/6/6 8/8/8 7/7/7 
f 8/8/8 9/9/9 7/7/7 
f 8/8/8 10/10/10 9/9/9 
f 10/10/10 11/11/11 9/9/9 
f 10/10/10 12/12/12 11/11/11 
f 12/12/12 13/13/13 11/11/11 
f 12/12/12 14/14/14 13/13/13 
f 14/14/14 3/3/3 13/13/13 
f 14/14/14 1/1/1 3/3/3 
f 3/3/3 15/15/15 16/16/16 
f 3/3/3 2/2/2 15/15/15 
f 2/2/2 17/17/17 15/15/15 
f 2/2/2 5/5/5 17/17/17 
f 5/5/5 18/18/18 17/17/17 
f 5/5/5 7/7/7 18/18/18 
f 7/7/7 19/19/19 18/18/18 
f 7/7/7 9/9/9 19/19/19 
f 9/9/9 20/20/20 19/19/19 
f 9/9/9 11/11/11 20/20/20 
f 11/11/11 21/21/21 20/20/20 
f 11/11/11 13/13/13 21/21/21 
f 13/13/13 16/16/16 21/21/21 
f 13/13/13 3/3/3 16/16/16 
f 16/16/16 22/22/22 23/23/23 
f 16/16/16 15/15/15 22/22/22 
f 15/15/15 24/24/24 22/22/22 
f 15/15/15 17/17/17 24/24/24 
f 17/17/17 25/25/25 24/24/24 
f 17/17/17 18/18/18 25/25/25 
f 18/18/18 26/26/26 25/25/25 
f 18/18/18 19/19/19 26/26/26 
f 19/19/19 27/27/27 26/26/26 
f 19/19/19 20/20/20 27/27/27 
f 20/20/20 28/28/28 27/27/27 
f 20/20/20 21/21/21 28/28/28 
f 21/21/21 23/23/23 28/28/28 
f 21/21/21 16/16/16 23/23/23 
f 23/23/23 29/29/29 30/30/30 
f 23/23/23 22/22/22 29/29/29 
f 22/22/22 31/31/31 29/29/29 
f 22/22/22 24/24/24 31/31/31 
f 24/24/24 32/32/32 31/31/31 
f 24/24/24 25/25/25 32/32/32 
f 25/25/25 33/33/33 32/32/32 
f 25/25/25 26/26/26 33/33/33 
f 26/26/26 34/34/34 33/33/33 
f 26/26/26 27/27/27 34/34/34 
f 27/27/27 35/35/35 34/34/34 
f 27/27/27 28/28/28 35/35/35 
f 28/28/28 30/30/30 35/35/35 
f 28/28/28 23/23/23 30/30/30 
f 30/30/30 36/36/36 37/37/37 
f 30/30/30 29/29/29 36/36/36 
f 29/29/29 38/38/38 36/36/36 
f 29/29/29 31/31/31 38/38/38 
f 31/31/31 39/39/39 38/38/38 
f 31/31/31 32/32/32 39/39/39 
f 32/32/32 40/40/40 39/39/39 
f 32/32/32 33/33/33 40/40/40 
f 33/33/33 41/41/41 40/40/40 
f 33/33/33 34/34/34 41/41/41 
f 34/34/34 42/42/42 41/41/41 
f 34/34/34 35/35/35 42/42/42 
f 35/35/35 37/37/37 42/42/42 
f 35/35/35 30/30/30 37/37/37 
f 37/37/37 43/43/43 44/44/44 
f 37/37/37 36/36/36 43/43/43 
f 36/36/36 45/45/45 43/43/43 
f 36/36/36 38/38/38 45/45/45 
f 38/38/38 46/46/46 45/45/45 
f 38/38/38 39/39/39 46/46/46 
f 39/39/39 47/47/47 46/46/46 
f 39/39/39 40/40/40 47/47/47 
f 40/40/40 48/48/48 47/47/47 
f 40/40/40 41/41/41 48/48/48 
f 41/41/41 49/49/49 48/48/48 
f 41/41/41 42/42/42 49/49/49 
f 42/42/42 44/44/44 49/49/49 
f 42/42/42 37/37/37 44/44/44 
f 44/44/44 50/50/50 51/51/51 
f 44/44/44 43/43/43 50/50/50 
f 43/43/43 52/52/52 50/50/50 
f 43/43/43 45/45/45 52/52/52 
f 45/45/45 53/53/53 52/52/52 
f 45/45/45 46/46/46 53/53/53 
f 46/46/46 54/54/54 53/53/53 
f 46/46/46 47/47/47 54/54/54 
f 47/47/47 55/55/55 54/54/54 
f 47/47/47 48/48/48 55/55/55 
f 48/48/48 56/56/56 55/55/55 
f 48/48/48 49/49/49 56/56/56 
f 49/49/49 51/51/51 56/56/56 
f 49/49/49 44/44/44 51/51/51 
f 51/51/51 57/57/57 58/58/58 
f 51/51/51 50/50/50 57/57/57 
f 50/50/50 59/59/59 57/57/57 
f 50/50/50 52/52/52 59/59/59 
f 52/52/52 60/60/60 59/59/59 
f 52/52/52 53/53/53 60/60/60 
f 53/53/53 61/61/61 60/60/60 
f 53/53/53 54/54/54 61/61/61 
f 54/54/54 62/62/62 61/61/61 
f 54/54/54 55/55/55 62/62/62 
f 55/55/55 63/63/63 62/62/62 
f 55/55/55 56/56/56 63/63/63 
f 56/56/56 58/58/58 63/63/63 
f 56/56/56 51/51/51 58/58/58 
f 58/58/58 64/64/64 65/65/65 
f 58/58/58 57/57/57 64/64/64 
f 57/57/57 66/66/66 64/64/64 
f 57/57/57 59/59/59 66/66/66 
f 59/59/59 67/67/67 66/66/66 
f 59/59/59 60/60/60 67/67/67 
f 60/60/60 68/68/68 67/67/67 
f 60/60/60 61/61/61 68/68/68 
f 61/61/61 69/69/69 68/68/68 
f 61/61/61 62/62/62 69/69/69 
f 62/62/62 70/70/70 69/69/69 
f 62/62/62 63/63/63 70/70/70 
f 63/63/63 65/65/65 70/70/70 
f 63/63/63 58/58/58 65/65/65 
f 65/65/65 71/71/71 72/72/72 
f 65/65/65 64/64/64 71/71/71 
f 64/64/64 73/73/73 71/71/71 
f 64/64/64 66/66/66 73/73/73 
f 66/66/66 74/74/74 73/73/73 
f 66/66/66 67/67/67 74/74/74 
f 67/67/67 75/75/75 74/74/74 
f 67/67/67 68/68/68 75/75/75 
f 68/68/68 76/76/76 75/75/75 
f 68/68/68 69/69/69 76/76/76 
f 69/69/69 77/77/77 76/76/76 
f 69/69/69 70/70/70 77/77/77 
f 70/70/70 72/72/72 77/77/77 
f 70/70/70 65/65/65 72/72/72 
f 72/72/72 78/78/78 79/79/79 
f 72/72/72 71/71/71 78/78/78 
f 71/71/71 80/80/80 78/78/78 
f 71/71/71 73/73/73 80/80/80 
f 73/73/73 81/81/81 80/80/80 
f 73/73/73 74/74/74 81/81/81 
f 74/74/74 82/82/82 81/81/81 
f 74/74/74 75/75/75 82/82/82 
f 75/75/75 83/83/83 82/82/82 
f 75/75/75 76/76/76 83/83/83 
f 76/76/76 84/84/84 83/83/83 
f 76/76/76 77/77/77 84/84/84 
f 77/77/77 79/79/79 84/84/84 
f 77/77/77 72/72/72 79/79/79 
f 79/79/79 4/85/4 1/86/1 
f 79/79/79 78/78/78 4/85/4 
f 78/78/78 6/87/6 4/85/4 
f 78/78/78 80/80/80 6/87/6 
f 80/80/80 8/88/8 6/87/6 
f 80/80/80 81/81/81 8/88/8 
f 81/81/81 10/89/10 8/88/8 
f 81/81/81 82/82/82 10/89/10 
f 82/82/82 12/90/12 10/89/10 
f 82/82/82 83/83/83 12/90/12 
f 83/83/83 14/91/14 12/90/12 
f 83/83/83 84/84/84 14/91/14 
f 84/84/84 1/86/1 14/91/14 
f 84/84/84 79/79/79 1/86/1 
# 168 faces

